:SAMPLES-PER-SECOND 30
:FRAME-RANGE 1-4244
:FULLY-SPECIFIED
:DEGREES
266
root  39.3895 36.5728 -53.7773 -3.5387 -58.1347 0.958194
RightUpLeg  -14.5 -7.17603 -11.5555
RightLeg  44.103 1.79094 1.55897
RightFoot  -25.2974 1.49689 13.5825
RightToes  -1.33073e-015 0 -3.6325e-017
Spine  -1.34752 -2.04845 -0.0978098
Spine1  2.56408 -2.57962 0.663488
HEad  15.1516 28.5304 -5.36144
LeftShoulder1  1.05068 -1.48839 -15.345
LeftArm  -23.6461 -5.73356 -40.1518
LeftForeArm  157.825 -81.7344 -106.425
LeftHand  0.901891 10.8671 19.3205
RightShoulder  1.59662 2.12983 23.1948
RightArm  -0.704367 20.5616 50.7765
RightForeArm  -142.454 69.2084 159.45
RightHand  -0.661542 -3.90968 -50.0061
LeftUpLeg  -8.14446 -8.76775 19.4776
LeftLeg  43.5543 13.202 13.4813
LeftFoot  -13.7215 -0.000874959 -3.9988
LeftToes  2.72522e-012 8.43823e-011 6.24977e-012
267
root  39.8934 36.3538 -53.3998 -3.37117 -55.4888 0.343341
RightUpLeg  -14.2731 -8.06115 -12.4626
RightLeg  45.0832 0.924798 0.686748
RightFoot  -25.0893 1.62707 14.8422
RightToes  -1.33073e-015 0 -3.6325e-017
Spine  -1.59882 -2.80429 -1.70354
Spine1  2.1751 -3.66181 1.96174
HEad  15.2512 28.0502 -5.68522
LeftShoulder1  1.19694 -2.3786 -14.4068
LeftArm  -25.7215 -10.908 -41.0335
LeftForeArm  112.851 -81.02 -62.2817
LeftHand  0.950256 10.9356 20.0393
RightShoulder  1.54063 1.88847 23.4902
RightArm  -2.57062 22.2479 51.3638
RightForeArm  -142.664 67.2299 161.41
RightHand  -1.08117 -3.07927 -51.5922
LeftUpLeg  -6.85928 -9.29691 20.8409
LeftLeg  40.3572 14.089 12.8732
LeftFoot  -14.3987 -0.0193213 -3.95579
LeftToes  2.72522e-012 8.43823e-011 6.24977e-012
268
root  40.5397 36.1703 -52.8804 -2.93235 -53.151 -0.0943941
RightUpLeg  -14.1277 -9.63095 -13.906
RightLeg  45.2228 0.739023 0.489918
RightFoot  -24.63 1.74496 16.3233
RightToes  -1.33073e-015 0 -3.6325e-017
Spine  -1.51558 -3.63978 -4.05397
Spine1  1.0071 -5.01647 5.01098
HEad  15.841 27.626 -6.12717
LeftShoulder1  1.28901 -2.74145 -14.6924
LeftArm  -26.6232 -14.2165 -42.7688
LeftForeArm  86.8765 -77.032 -37.5399
LeftHand  0.780376 10.131 19.3533
RightShoulder  1.55233 2.17354 22.0845
RightArm  -3.54849 24.4612 53.0867
RightForeArm  -144.723 65.1872 162.997
RightHand  -1.0005 -3.22497 -51.0862
LeftUpLeg  -6.44005 -9.08621 21.5035
LeftLeg  37.6257 13.2324 11.0867
LeftFoot  -14.9559 -0.036583 -3.99829
LeftToes  2.72522e-012 8.43823e-011 6.24977e-012
269
root  41.3537 36.0158 -52.2135 -1.83752 -51.1179 -1.05279
RightUpLeg  -13.9189 -11.243 -15.321
RightLeg  44.5159 0.864264 0.607433
RightFoot  -23.6408 1.79315 18.0057
RightToes  -1.33073e-015 0 -3.6325e-017
Spine  -1.64624 -4.3633 -4.52242
Spine1  0.143242 -5.81982 5.88767
HEad  16.8439 25.6748 -5.31238
LeftShoulder1  1.46697 -3.65057 -14.4457
LeftArm  -26.0348 -16.3131 -44.9028
LeftForeArm  74.6574 -72.7667 -27.0012
LeftHand  0.694853 9.56896 19.5694
RightShoulder  1.4397 1.79133 21.9775
RightArm  -5.23907 27.5181 54.5719
RightForeArm  -143.024 63.6101 164.285
RightHand  -0.829661 -3.5788 -50.8733
LeftUpLeg  -6.76049 -8.35194 22.008
LeftLeg  35.9667 10.1657 8.20071
LeftFoot  -16.6121 -0.356778 -9.88997
LeftToes  2.72522e-012 8.43823e-011 6.24977e-012
270
root  42.3161 35.9616 -51.4335 -1.04486 -50.1256 -1.58304
RightUpLeg  -13.5399 -12.9542 -17.2819
RightLeg  42.6268 1.74896 1.43486
RightFoot  -21.7938 1.64134 19.4017
RightToes  -1.33073e-015 0 -3.6325e-017
Spine  -1.53181 -4.61937 -4.69698
Spine1  -0.53219 -5.96194 5.59312
HEad  17.3479 22.6922 -4.00442
LeftShoulder1  1.72165 -5.36986 -13.0798
LeftArm  -24.4584 -16.38 -47.4622
LeftForeArm  70.5394 -70.5976 -23.5897
LeftHand  0.66485 9.43361 19.3798
RightShoulder  1.13419 0.48065 23.7261
RightArm  -6.28348 31.4257 54.6652
RightForeArm  -140.694 62.0248 165.486
RightHand  -1.42684 -2.23185 -49.7943
LeftUpLeg  -7.21936 -5.00607 21.5037
LeftLeg  35.419 7.4858 6.05621
LeftFoot  -21.2987 -0.869492 -11.4132
LeftToes  2.72522e-012 8.43823e-011 6.24977e-012
271
root  43.4287 36.0452 -50.5241 -0.229163 -50.2104 -2.35032
RightUpLeg  -12.4058 -14.1723 -19.2256
RightLeg  38.5657 3.13826 2.41662
RightFoot  -18.9108 1.26499 20.8627
RightToes  -1.33073e-015 0 -3.6325e-017
Spine  -0.518461 -4.94287 -6.23719
Spine1  -1.29183 -6.70426 8.26225
HEad  17.1939 20.6964 -4.15926
LeftShoulder1  1.74959 -5.12952 -14.0675
LeftArm  -21.6929 -15.8711 -48.705
LeftForeArm  71.4157 -70.9709 -24.0869
LeftHand  0.703193 9.67036 19.3484
RightShoulder  1.23546 0.872936 23.3388
RightArm  -9.40528 34.252 54.3695
RightForeArm  -141.463 60.7502 166.212
RightHand  -0.68082 -3.79205 -47.7761
LeftUpLeg  -7.58277 -3.92653 20.4528
LeftLeg  35.6308 5.67281 4.72656
LeftFoot  -23.9654 -1.55828 -15.3056
LeftToes  2.72522e-012 8.43823e-011 6.24977e-012
272
root  44.648 36.3312 -49.477 0.432327 -51.5523 -2.57017
RightUpLeg  -11.0787 -12.7259 -21.0266
RightLeg  32.0642 3.24394 1.95251
RightFoot  -15.0041 0.588693 21.39
RightToes  -1.33073e-015 0 -3.6325e-017
Spine  -0.533657 -4.75603 -5.95912
Spine1  -1.02412 -6.43198 7.73791
HEad  16.7831 17.8139 -3.66852
LeftShoulder1  1.8427 -5.42216 -14.4761
LeftArm  -19.3341 -15.8838 -50.1078
LeftForeArm  72.2034 -71.1918 -24.3556
LeftHand  0.64745 9.4817 18.7111
RightShoulder  1.2235 0.76417 23.8595
RightArm  -14.963 35.8841 54.1635
RightForeArm  -139.255 60.6076 166.424
RightHand  -0.246728 -4.7583 -45.6873
LeftUpLeg  -8.34678 -0.0765586 18.5961
LeftLeg  36.3217 3.70245 3.29687
LeftFoot  -24.231 -1.4893 -14.4036
LeftToes  2.72522e-012 8.43823e-011 6.24977e-012
273
root  45.8233 36.7004 -48.3498 0.107232 -54.7941 -1.47985
RightUpLeg  -10.6243 -6.06126 -22.6424
RightLeg  25.7388 0.069151 -0.18383
RightFoot  -14.2779 0.367599 18.0103
RightToes  -1.33073e-015 0 -3.6325e-017
Spine  -0.406766 -4.14339 -5.47382
Spine1  -1.45918 -5.40725 5.97363
HEad  18.0811 15.9756 -2.90376
LeftShoulder1  1.77244 -5.09217 -14.4679
LeftArm  -16.2434 -15.9131 -50.7612
LeftForeArm  70.4067 -71.3356 -24.8583
LeftHand  0.613999 9.31319 18.5384
RightShoulder  1.27325 0.921149 23.9333
RightArm  -18.4867 37.0992 53.1115
RightForeArm  -141.413 61.6189 165.694
RightHand  0.103081 -5.60536 -44.7742
LeftUpLeg  -7.67081 5.46235 15.8505
LeftLeg  35.5966 2.29289 2.13832
LeftFoot  -24.0552 -1.50131 -14.6991
LeftToes  2.72522e-012 8.43823e-011 6.24977e-012
274
root  46.8338 37.073 -47.2624 0.304403 -58.8781 -1.16861
RightUpLeg  -11.3274 4.68575 -22.9949
RightLeg  22.2143 -4.7229 -2.32962
RightFoot  -16.4775 0.397514 11.3293
RightToes  -1.33073e-015 0 -3.6325e-017
Spine  -1.32805 -3.35153 -4.54328
Spine1  -0.613917 -4.30903 4.0507
HEad  19.1906 15.9534 -3.35961
LeftShoulder1  1.74429 -4.9329 -14.5405
LeftArm  -13.7482 -16.4573 -50.7476
LeftForeArm  71.9132 -71.4748 -24.8927
LeftHand  0.600753 9.3453 18.0383
RightShoulder  1.30749 1.11748 23.3463
RightArm  -22.0934 38.5557 52.2863
RightForeArm  -141.912 64.044 164.049
RightHand  -0.12635 -5.04312 -44.9537
LeftUpLeg  -6.54773 10.8317 13.6411
LeftLeg  34.5819 1.91963 1.79736
LeftFoot  -23.9926 -1.34146 -13.3462
LeftToes  2.72522e-012 8.43823e-011 6.24977e-012
275
root  47.6906 37.3726 -46.2783 0.144957 -61.0478 -1.18004
RightUpLeg  -12.1525 7.3753 -21.9611
RightLeg  25.4357 -3.21305 -1.88237
RightFoot  -18.5019 0.452282 9.22023
RightToes  -1.33073e-015 0 -3.6325e-017
Spine  -1.38105 -3.46812 -5.18831
Spine1  0.464799 -4.60593 4.15068
HEad  19.3481 17.4786 -4.54641
LeftShoulder1  1.76154 -4.90807 -14.8412
LeftArm  -13.1208 -17.2809 -51.3701
LeftForeArm  72.4701 -71.1008 -24.1641
LeftHand  0.623287 9.4781 18.0897
RightShoulder  1.27482 1.14529 22.368
RightArm  -22.2194 37.7174 50.0456
RightForeArm  -141.258 65.2034 163.222
RightHand  -0.0507654 -5.22924 -45.9596
LeftUpLeg  -6.04938 9.66583 10.5674
LeftLeg  34.2407 5.51821 4.40346
LeftFoot  -23.5892 -1.23264 -12.7609
LeftToes  2.72522e-012 8.43823e-011 6.24977e-012
276
root  48.4357 37.7455 -45.3995 0.693318 -61.8957 -1.43155
RightUpLeg  -13.1295 4.15949 -19.272
RightLeg  31.9357 -0.352094 -0.471726
RightFoot  -18.9997 0.630563 11.3192
RightToes  -1.33073e-015 0 -3.6325e-017
Spine  -0.914359 -4.06649 -6.36434
Spine1  0.601456 -5.52913 4.95092
HEad  19.3743 19.4719 -5.30928
LeftShoulder1  1.82687 -5.18657 -14.9139
LeftArm  -13.2131 -18.0877 -52.3863
LeftForeArm  70.6627 -70.8419 -23.9732
LeftHand  0.604937 9.19111 18.8326
RightShoulder  1.21808 0.886065 22.7988
RightArm  -21.3317 35.4028 48.5838
RightForeArm  -139.567 65.3208 163.24
RightHand  -0.685075 -3.79089 -48.017
LeftUpLeg  -6.33462 5.26831 7.19654
LeftLeg  33.6434 10.8783 8.06897
LeftFoot  -22.0154 -1.10917 -13.2332
LeftToes  2.72522e-012 8.43823e-011 6.24977e-012
277
root  49.1691 38.0813 -44.5674 1.99619 -63.7614 -1.8391
RightUpLeg  -15.2974 -0.85789 -15.6931
RightLeg  39.1479 0.872716 0.496692
RightFoot  -19.3463 0.861376 14.1296
RightToes  -1.33073e-015 0 -3.6325e-017
Spine  -0.658149 -4.24296 -6.99097
Spine1  0.993645 -6.0585 6.21198
HEad  18.1469 21.9348 -7.37746
LeftShoulder1  1.88557 -5.29592 -15.3622
LeftArm  -14.0868 -19.5817 -52.3834
LeftForeArm  72.6398 -71.5677 -24.9575
LeftHand  0.632896 9.31856 19.0321
RightShoulder  1.2735 1.07203 22.8437
RightArm  -19.7956 33.2172 48.1494
RightForeArm  -137.072 63.7456 164.56
RightHand  -1.35102 -2.39993 -49.8294
LeftUpLeg  -7.45551 6.29303 5.20686
LeftLeg  33.5099 12.0488 8.83275
LeftFoot  -20.3609 -0.874343 -12.5868
LeftToes  2.72522e-012 8.43823e-011 6.24977e-012
278
root  50.0257 38.2534 -43.7761 2.33073 -66.6336 -0.863615
RightUpLeg  -18.6429 -5.68907 -13.079
RightLeg  45.6514 2.61209 2.55516
RightFoot  -19.3192 1.05183 16.8626
RightToes  -1.33073e-015 0 -3.6325e-017
Spine  0.907216 -3.81582 -5.93553
Spine1  0.405461 -5.42297 5.21226
HEad  16.8193 23.8352 -9.78691
LeftShoulder1  1.90799 -5.72509 -14.4927
LeftArm  -15.2685 -22.408 -51.49
LeftForeArm  73.6444 -71.787 -25.2164
LeftHand  0.693155 9.49588 19.8478
RightShoulder  1.363 1.36116 22.9823
RightArm  -19.5628 30.9755 48.2882
RightForeArm  -135.277 60.8401 166.508
RightHand  -1.54247 -2.01716 -50.2984
LeftUpLeg  -11.0893 10.5859 3.43355
LeftLeg  37.1815 9.07997 7.71097
LeftFoot  -17.9281 -0.662852 -13.3296
LeftToes  2.72522e-012 8.43823e-011 6.24977e-012
279
root  50.9866 38.1506 -43.0225 2.21129 -69.5976 0.288692
RightUpLeg  -21.4715 -6.87637 -11.5172
RightLeg  49.3647 5.74177 6.80039
RightFoot  -19.2269 1.35247 21.3022
RightToes  -1.33073e-015 0 -3.6325e-017
Spine  3.41462 -3.13943 -3.80234
Spine1  -0.210082 -4.29609 3.34233
HEad  16.4031 25.0534 -12.2322
LeftShoulder1  1.89923 -6.62621 -12.2821
LeftArm  -18.1582 -26.9222 -50.5337
LeftForeArm  73.3331 -70.875 -23.6746
LeftHand  0.709147 9.5036 20.2302
RightShoulder  1.43205 1.62268 22.8365
RightArm  -21.4027 31.2104 48.6881
RightForeArm  -134.672 59.9034 167.067
RightHand  -0.781676 -3.72055 -51.9845
LeftUpLeg  -17.0794 14.484 2.67671
LeftLeg  45.3798 2.5172 3.16995
LeftFoot  -13.6896 -0.213369 -14.3326
LeftToes  2.72522e-012 8.43823e-011 6.24977e-012
280
root  51.9173 37.7376 -42.2804 1.21052 -72.3536 2.0595
RightUpLeg  -23.4735 -5.06947 -11.7741
RightLeg  50.3405 7.74413 9.56659
RightFoot  -14.8756 0.604488 22.6191
RightToes  -1.33073e-015 0 -3.6325e-017
Spine  6.36 -2.69594 -3.10266
Spine1  -1.09429 -3.68759 3.15135
HEad  17.6081 26.4077 -13.309
LeftShoulder1  1.68772 -6.78945 -9.60946
LeftArm  -21.4409 -32.791 -48.286
LeftForeArm  69.5704 -69.1657 -21.5864
LeftHand  0.72733 9.55173 20.4816
RightShoulder  1.52408 2.30252 20.8506
RightArm  -24.9468 34.2829 48.5076
RightForeArm  -134.853 60.9007 166.495
RightHand  -1.28207 -2.62374 -51.0173
LeftUpLeg  -22.3098 14.4703 4.25439
LeftLeg  53.841 -6.00085 -8.25668
LeftFoot  -11.2295 0.0842634 -17.6761
LeftToes  2.72522e-012 8.43823e-011 6.24977e-012
